<?xml version="1.0" encoding="utf-8"?>
<!-- Generator: Adobe Illustrator 28.0.0, SVG Export Plug-In . SVG Version: 6.00 Build 0)  -->
<svg version="1.1" id="Layer_1" xmlns="http://www.w3.org/2000/svg" xmlns:xlink="http://www.w3.org/1999/xlink" x="0px" y="0px"
	 viewBox="0 0 500 500" style="enable-background:new 0 0 500 500;" xml:space="preserve">
<style type="text/css">
	.st0{fill:#FFFFFF;}
	.st1{fill:#145229;}
	.st2{fill:#11324D;}
	.st3{clip-path:url(#SVGID_00000068672070231173749600000004587403245102261674_);}
	.st4{clip-path:url(#SVGID_00000180347279644576260450000008344915028637368492_);}
	.st5{clip-path:url(#SVGID_00000008110377276287228160000016534013637541259938_);}
	.st6{clip-path:url(#SVGID_00000116930261278107691180000010066217099585195956_);}
	.st7{clip-path:url(#SVGID_00000169517102306597503320000004017629711569871515_);}
	.st8{clip-path:url(#SVGID_00000065061286616852295000000004433935162830024337_);}
	.st9{clip-path:url(#SVGID_00000165951733058805335460000013063781231374455951_);}
	.st10{clip-path:url(#SVGID_00000150074051807446774150000017991895991640018594_);}
	.st11{clip-path:url(#SVGID_00000134247916435909560730000003870056545081021872_);}
	.st12{fill:#098B4D;}
	.st13{clip-path:url(#SVGID_00000032610741543898576140000002481995937219232688_);}
	.st14{clip-path:url(#SVGID_00000049192432297847967470000012649711012507530146_);}
	.st15{clip-path:url(#SVGID_00000133487313758156967580000003648098072953940413_);}
	.st16{fill:#105225;}
	.st17{clip-path:url(#SVGID_00000010306685952457873060000009820450584523139458_);}
	.st18{clip-path:url(#SVGID_00000144324305655796249590000008734010574130712992_);}
	.st19{clip-path:url(#SVGID_00000008120415901888065970000002132584923545407398_);}
	.st20{fill:#7ED957;}
	.st21{clip-path:url(#SVGID_00000093138580193774353200000012352053830386063806_);}
	.st22{clip-path:url(#SVGID_00000065067820066371008040000002185824924890698151_);}
	.st23{clip-path:url(#SVGID_00000106121002187323361130000009316289391489159066_);}
	.st24{clip-path:url(#SVGID_00000161594650276612520520000006753829442151709069_);}
	.st25{clip-path:url(#SVGID_00000023249048892495817220000007122263975821208759_);}
	.st26{clip-path:url(#SVGID_00000070830389027965895000000012419645030128033963_);}
	.st27{clip-path:url(#SVGID_00000003084036611724854100000001372479431818181779_);}
	.st28{clip-path:url(#SVGID_00000011716144327793243850000015990854181607430330_);}
	.st29{clip-path:url(#SVGID_00000022557947904636228220000001788476693023497624_);}
	.st30{clip-path:url(#SVGID_00000028310733019128700270000017931438496732352391_);}
	.st31{clip-path:url(#SVGID_00000070833857668807494030000000267296851857493408_);}
	.st32{clip-path:url(#SVGID_00000155130678232860259550000004090326787987776933_);}
	.st33{clip-path:url(#SVGID_00000060000281204460335680000005434659921491655864_);}
	.st34{clip-path:url(#SVGID_00000178190901068025602580000015072923561007908790_);}
</style>
<g>
	<path class="st0" d="M429.3,95.8c-13.1-1.3-24.9-6.9-34.1-15.2C385,71.3,378,58.5,375.9,44.1c-0.3-1.4-0.5-2.7-0.8-4.1
		c-0.9,0-1.8,0-2.8,0c-7,0-15-2.1-24-5c-9.1-3-19-6.8-29.7-10.6c-21.4-7.7-45.6-15.1-69.2-15.1c-17.7,0-35.7,4.2-52.7,9.5
		C180,24.2,164.2,30.6,150.7,35c-9,2.9-16.9,5-24,5c-1,0-1.8,0-2.8,0c-0.2,1.4-0.4,2.8-0.8,4.1c-2,14.5-9.1,27.1-19.2,36.5
		C94.7,89,82.9,94.5,70,95.8c-0.5,8.9-1.1,20.8-1.3,35c-0.3,22.2-0.9,44.8-0.9,67.2c0,36.6,1.4,72.6,7.6,105.8s17,63.4,35.7,88.6
		c12.5,16.7,28.5,31.3,49.1,43.2c57.1,32.7,81.7,48.8,89.3,54c7.6-5,32.2-21.1,89.3-54c20.6-11.8,36.6-26.4,49.1-43.2
		c12.5-16.8,21.5-35.8,28-56.5c12.8-41.3,15.4-89.1,15.5-137.8c0-22.4-0.5-44.9-0.9-67.2C430.4,116.6,429.8,104.7,429.3,95.8z"/>
	<path class="st1" d="M438.2,91.2c-0.1-2.4-2.2-4.3-4.5-4.3c-12.4-0.3-23.8-5.3-32.4-13.1c-8.6-7.9-14.6-18.8-16.3-31l-0.1-0.4
		c-0.5-2.3-0.9-4.7-1-7.3c-0.2-2.5-2.3-4.4-4.9-4.3c-2.3,0.1-4.6,0.2-6.8,0.2c-5.1,0-12.4-1.7-21.1-4.6c-13-4.2-28.8-10.7-46.2-16.2
		c-17.4-5.6-36.3-10.1-55.5-10.1c-25.6,0-50.7,7.9-72.3,15.7c-10.8,3.9-20.7,7.7-29.4,10.5c-8.6,2.8-16,4.6-21.1,4.6
		c-2.3,0-4.5-0.1-6.8-0.2c-2.5-0.1-4.6,1.8-4.9,4.3c-0.2,2.6-0.4,5-1,7.3l-0.1,0.4c-1.7,12.2-7.7,23.2-16.3,31
		c-8.6,7.9-20,12.8-32.4,13.1c-2.4,0.1-4.3,1.9-4.5,4.3c-0.6,9.3-1.3,23-1.5,39.5c-0.3,22.2-0.9,44.8-0.9,67.4
		c0,49.1,2.5,97.7,15.9,140.6C81,360,90.4,380,103.7,397.8c13.2,17.8,30.2,33.4,51.9,45.8c35.4,20.4,58.3,34.2,72.2,43
		c7,4.4,11.8,7.5,14.8,9.5c1.5,1,2.6,1.7,3.2,2.1c0.3,0.2,0.5,0.4,0.8,0.5l0.2,0.1c1.6,1.2,3.9,1.2,5.5,0
		c1.1-0.8,22.5-15.9,91.1-55.3c21.7-12.4,38.8-28,51.9-45.8c19.9-26.7,31.1-58.4,37.5-92.5c6.4-34.1,7.8-70.7,7.8-107.5
		c0-22.4-0.5-45.1-0.9-67.2C439.5,114.2,438.9,100.6,438.2,91.2z M415.9,335.8c-6.5,20.7-15.4,39.7-28,56.5
		c-12.5,16.8-28.5,31.4-49.1,43.2c-57.1,32.8-81.7,48.9-89.3,54c-7.6-5.2-32.2-21.2-89.3-54c-20.6-11.9-36.6-26.5-49.1-43.2
		c-18.8-25.2-29.6-55.5-35.7-88.6s-7.6-69.2-7.6-105.8c0-22.3,0.5-44.9,0.9-67.2c0.2-14.2,0.8-26.1,1.3-35c13-1.3,24.7-6.9,34-15.2
		c10.1-9.3,17.2-22,19.2-36.5c0.3-1.3,0.5-2.7,0.8-4.1c1,0,1.8,0,2.8,0c7,0,15-2.1,24-5c13.5-4.4,29.3-10.8,46.1-16.2
		c17-5.4,35-9.5,52.7-9.5c23.6,0,47.8,7.4,69.2,15.1c10.7,3.9,20.6,7.6,29.7,10.6c9,2.9,17,5,24,5c1,0,1.9,0,2.8,0
		c0.2,1.4,0.4,2.7,0.8,4.1c2.1,14.4,9.1,27.1,19.2,36.5c9.2,8.4,21.1,13.9,34.1,15.2c0.5,8.9,1.1,20.8,1.3,35
		c0.3,22.2,0.9,44.7,0.9,67.2C431.3,246.7,428.7,294.5,415.9,335.8z"/>
</g>
<path class="st2" d="M302.6,388c3.4-9-2.7-16.8-2.7-16.8s-9.2,6-12.8,14.4c-3.6,8.4,0,17,0,17S299.2,397,302.6,388"/>
<path class="st2" d="M347.5,346.6c-0.4-9-8.4-13.5-8.4-13.5s-5.8,8.6-5.8,17.2c0,8.6,6.4,14.6,6.4,14.6S347.9,355.6,347.5,346.6"/>
<path class="st2" d="M310.6,401.8c-10-0.7-21.7,5.1-21.7,5.1s3.2,9.3,13.4,10.8c10.2,1.5,23.3-6.9,23.3-6.9S320.7,402.5,310.6,401.8
	"/>
<path class="st2" d="M336.9,380.8c-9.6,1.3-19.4,9.1-19.4,9.1s4.8,8.2,14.8,7.6c9.9-0.6,20.5-11.1,20.5-11.1
	S346.5,379.6,336.9,380.8"/>
<path class="st2" d="M358.5,354.7c-8.8,3.1-16.4,12.4-16.4,12.4s6.2,6.7,15.4,4.1c9.2-2.6,17-14.6,17-14.6S367.3,351.6,358.5,354.7"
	/>
<path class="st2" d="M374.4,324.3c-7.6,4.8-12.9,15.1-12.9,15.1s7.2,5,15.3,0.5c8.1-4.4,13.1-17.2,13.1-17.2S382,319.6,374.4,324.3"
	/>
<g>
	<defs>
		<rect id="SVGID_1_" x="374.7" y="285.3" width="23.7" height="24"/>
	</defs>
	<clipPath id="SVGID_00000085247566224718273310000004986215044953930148_">
		<use xlink:href="#SVGID_1_"  style="overflow:visible;"/>
	</clipPath>
	<g style="clip-path:url(#SVGID_00000085247566224718273310000004986215044953930148_);">
		<path class="st2" d="M383.8,291c-6.1,6.1-9.1,16.8-9.1,16.8s7.7,3,14.4-2.8c6.7-5.9,8.7-18.8,8.7-18.8S389.9,284.9,383.8,291"/>
	</g>
</g>
<g>
	<defs>
		<rect id="SVGID_00000071525750801501350870000011269684192266695299_" x="380" y="248" width="18.4" height="26.7"/>
	</defs>
	<clipPath id="SVGID_00000009561514307741278050000014532500701339966364_">
		<use xlink:href="#SVGID_00000071525750801501350870000011269684192266695299_"  style="overflow:visible;"/>
	</clipPath>
	<g style="clip-path:url(#SVGID_00000009561514307741278050000014532500701339966364_);">
		<path class="st2" d="M385.9,256c-4.4,7-4.9,17.7-4.9,17.7s7.8,1.1,12.7-5.9c4.9-7,4.2-19.4,4.2-19.4S390.3,249,385.9,256"/>
	</g>
</g>
<path class="st2" d="M389.9,230.2c3.1-7.6-0.2-19-0.2-19s-6.8,2.2-9.4,9.7c-2.6,7.5-0.8,17.6-0.8,17.6S386.8,237.8,389.9,230.2"/>
<g>
	<defs>
		<rect id="SVGID_00000061432250457127215400000006040127927453809590_" x="204" y="185.5" width="177.3" height="249"/>
	</defs>
	<clipPath id="SVGID_00000113343171967314661860000007783556717566583682_">
		<use xlink:href="#SVGID_00000061432250457127215400000006040127927453809590_"  style="overflow:visible;"/>
	</clipPath>
	<g style="clip-path:url(#SVGID_00000113343171967314661860000007783556717566583682_);">
		<path class="st2" d="M343.4,365.2c13.4-19.5,23-38.6,29-58.2c0.4,0.2,0.7,0.3,0.7,0.3s0.9-3.2,1.3-7.3c2.2-8.8,3.8-17.6,4.5-26.6
			c0.7,0.1,1.1,0.2,1.1,0.2s0.3-4.2-0.6-8.9c0.3-8.5-0.1-17.2-1.1-26.1c0.7,0,1.1-0.1,1.1-0.1s-0.5-3.5-2.1-7.5
			c-0.8-5-1.7-10-2.9-15.1c0.1,0.1,0.2,0.2,0.2,0.2s2.9-8.9-0.7-17.7c-3.6-8.8-11.9-12.9-11.9-12.9s-1,9,2.4,17.2
			c3,7.3,8.7,12.2,10,13.2c1,4.8,1.9,9.5,2.5,14.2c-1.1-2.5-2.7-5.1-4.8-6.9c-5.7-4.8-12.7-2.3-12.7-2.3s2.3,9,7.6,13.9
			c3.9,3.5,8.6,3.9,10.9,3.9c0.8,8,1.2,16,1,23.9c-0.6-2.2-1.5-4.4-2.9-6.2c-4.8-6.2-12.6-5.2-12.6-5.2s0.3,9.5,4.7,15.7
			c3.1,4.4,7.8,5.9,10.2,6.5c-0.7,8.1-2,16.1-3.8,23.9c0-2.8-0.4-5.8-1.7-8.4c-3.6-7.4-11.9-8.2-11.9-8.2s-1.7,9.6,1.4,16.9
			c2.4,5.5,7.3,8.2,9.5,9.2c-2.5,8.2-5.7,16.2-9.6,24.1c1-3.5,1.7-7.8,0.8-11.6c-2.1-8.4-10.4-11-10.4-11s-3.8,9.3-2.1,17.4
			c1.4,6.6,6.5,10.7,8.3,12c-4.8,8.7-10.6,17.3-17.3,25.7c-7.6,7.9-15.3,14.7-23.5,21c3.1-2.9,8.1-8.4,9-14.6
			c1.5-9.2-5.8-15.4-5.8-15.4s-7.6,7.5-9.3,16.2c-1.6,7.9,2.5,14.8,3.3,16c-5.5,4-11.2,7.7-17.2,11.3c-7.8,4.2-15.7,7.5-23.4,10.1
			c-7.8,2.7-15.3,5.1-22.2,7.2c-14,4.2-26.1,7.3-34.6,10.1c-4.2,1.4-7.5,2.7-9.6,3.8c-1,0.5-1.8,0.9-2.3,1.3s-0.8,0.5-0.8,0.5
			c2.5,1.4,3.7,2,6.3,3.3c0,0,0.2-0.1,0.5-0.4c0.3-0.2,0.9-0.6,1.7-1c1.6-0.9,4.1-2.1,7.8-3.4c7.3-2.7,19-5.9,32.6-10.2
			c6.8-2.2,14.1-4.6,21.8-7.4c7.8-2.8,15.8-6.3,23.7-10.6C316.1,391,329.9,379.7,343.4,365.2"/>
	</g>
</g>
<path class="st2" d="M197.3,388c-3.4-9,2.7-16.8,2.7-16.8s9.2,6,12.8,14.4c3.6,8.4,0,17,0,17S200.8,397,197.3,388"/>
<path class="st2" d="M152.5,346.6c0.4-9,8.4-13.5,8.4-13.5s5.8,8.6,5.8,17.2c0,8.6-6.4,14.6-6.4,14.6S152.1,355.6,152.5,346.6"/>
<path class="st2" d="M189.3,401.8c10-0.7,21.7,5.1,21.7,5.1s-3.1,9.3-13.4,10.8c-10.2,1.5-23.3-6.9-23.3-6.9
	S179.3,402.5,189.3,401.8"/>
<path class="st2" d="M163.1,380.8c9.6,1.3,19.4,9.1,19.4,9.1s-4.8,8.2-14.8,7.6c-9.9-0.6-20.5-11.1-20.5-11.1
	S153.5,379.6,163.1,380.8"/>
<path class="st2" d="M141.5,354.7c8.8,3.1,16.4,12.4,16.4,12.4s-6.2,6.7-15.4,4.1c-9.2-2.6-17-14.6-17-14.6S132.7,351.6,141.5,354.7
	"/>
<path class="st2" d="M125.6,324.3c7.6,4.8,12.9,15.1,12.9,15.1s-7.2,5-15.3,0.5c-8.1-4.4-13.1-17.2-13.1-17.2S118,319.6,125.6,324.3
	"/>
<g>
	<defs>
		<rect id="SVGID_00000121983010536420018050000007780738304266138754_" x="101.4" y="285.3" width="23.9" height="24"/>
	</defs>
	<clipPath id="SVGID_00000002365812462575804000000013461797408506718371_">
		<use xlink:href="#SVGID_00000121983010536420018050000007780738304266138754_"  style="overflow:visible;"/>
	</clipPath>
	<g style="clip-path:url(#SVGID_00000002365812462575804000000013461797408506718371_);">
		<path class="st2" d="M116.2,291c6.1,6.1,9.1,16.8,9.1,16.8s-7.7,3-14.4-2.8c-6.7-5.9-8.7-18.8-8.7-18.8S110.1,284.9,116.2,291"/>
	</g>
</g>
<g>
	<defs>
		<rect id="SVGID_00000148626289516071795420000017493349344150795915_" x="101.4" y="248" width="18.6" height="26.7"/>
	</defs>
	<clipPath id="SVGID_00000080169023638864920650000007243576489883834012_">
		<use xlink:href="#SVGID_00000148626289516071795420000017493349344150795915_"  style="overflow:visible;"/>
	</clipPath>
	<g style="clip-path:url(#SVGID_00000080169023638864920650000007243576489883834012_);">
		<path class="st2" d="M114.1,256c4.4,7,4.9,17.7,4.9,17.7s-7.8,1.1-12.7-5.9c-4.9-7-4.2-19.4-4.2-19.4S109.7,249,114.1,256"/>
	</g>
</g>
<path class="st2" d="M110.1,230.2c-3.1-7.6,0.2-19,0.2-19s6.8,2.2,9.4,9.7c2.6,7.5,0.8,17.6,0.8,17.6S113.1,237.8,110.1,230.2"/>
<g>
	<defs>
		<rect id="SVGID_00000061471637047363053130000013487840010200795023_" x="118.7" y="185.5" width="177.3" height="249"/>
	</defs>
	<clipPath id="SVGID_00000173142970107045907290000005378466292765243288_">
		<use xlink:href="#SVGID_00000061471637047363053130000013487840010200795023_"  style="overflow:visible;"/>
	</clipPath>
	<g style="clip-path:url(#SVGID_00000173142970107045907290000005378466292765243288_);">
		<path class="st2" d="M156.5,365.2c-13.4-19.5-23-38.6-29-58.2c-0.4,0.2-0.7,0.3-0.7,0.3s-0.9-3.2-1.3-7.3
			c-2.2-8.8-3.8-17.6-4.5-26.6c-0.7,0.1-1.1,0.2-1.1,0.2s-0.3-4.2,0.6-8.9c-0.3-8.5,0.1-17.2,1.1-26.1c-0.7,0-1.1-0.1-1.1-0.1
			s0.5-3.5,2.1-7.5c0.8-5,1.7-10,2.9-15.1c-0.1,0.1-0.2,0.2-0.2,0.2s-2.9-8.9,0.7-17.7c3.6-8.8,11.9-12.9,11.9-12.9s1,9-2.4,17.2
			c-3,7.3-8.7,12.2-10,13.2c-1,4.8-1.9,9.5-2.5,14.2c1.1-2.5,2.7-5.1,4.8-6.9c5.7-4.8,12.7-2.3,12.7-2.3s-2.3,9-7.6,13.9
			c-3.9,3.5-8.6,3.9-10.9,3.9c-0.8,8-1.2,16-1,23.9c0.6-2.2,1.5-4.4,2.9-6.2c4.8-6.2,12.6-5.2,12.6-5.2s-0.3,9.5-4.7,15.7
			c-3.1,4.4-7.8,5.9-10.2,6.5c0.7,8.1,2,16.1,3.8,23.9c0-2.8,0.4-5.8,1.7-8.4c3.6-7.4,11.9-8.2,11.9-8.2s1.8,9.6-1.4,16.9
			c-2.4,5.5-7.3,8.2-9.5,9.2c2.5,8.2,5.7,16.2,9.6,24.1c-1-3.5-1.7-7.8-0.8-11.6c2.1-8.4,10.5-11,10.5-11s3.8,9.3,2.1,17.4
			c-1.4,6.6-6.5,10.7-8.3,12c4.8,8.7,10.6,17.3,17.3,25.7c7.6,7.9,15.3,14.7,23.4,21c-3.1-2.9-8-8.4-9-14.6
			c-1.5-9.2,5.8-15.4,5.8-15.4s7.6,7.5,9.4,16.2c1.6,7.9-2.5,14.8-3.3,16c5.5,4,11.2,7.7,17.2,11.3c7.8,4.2,15.7,7.5,23.4,10.1
			c7.8,2.7,15.3,5.1,22.2,7.2c14,4.2,26.1,7.3,34.6,10.1c4.2,1.4,7.5,2.7,9.6,3.8c1,0.5,1.8,0.9,2.3,1.3c0.5,0.3,0.8,0.5,0.8,0.5
			c-2.5,1.4-3.7,2-6.3,3.3c0,0-0.2-0.1-0.5-0.4c-0.3-0.2-0.9-0.6-1.7-1c-1.6-0.9-4.1-2.1-7.8-3.4c-7.3-2.7-19-5.9-32.6-10.2
			c-6.8-2.2-14.1-4.6-21.8-7.4c-7.8-2.8-15.8-6.3-23.7-10.6C183.9,391,170.1,379.7,156.5,365.2"/>
	</g>
</g>
<g>
	<defs>
		<rect id="SVGID_00000173130289085660076830000010963719214426784931_" x="258.7" y="268" width="68" height="57.3"/>
	</defs>
	<clipPath id="SVGID_00000161602302598155455030000017444304509070469040_">
		<use xlink:href="#SVGID_00000173130289085660076830000010963719214426784931_"  style="overflow:visible;"/>
	</clipPath>
	<g style="clip-path:url(#SVGID_00000161602302598155455030000017444304509070469040_);">
		<g>
			<defs>
				
					<rect id="SVGID_00000035492066510396612570000008217384404171926433_" x="263.6" y="265.9" transform="matrix(0.4305 -0.9026 0.9026 0.4305 -100.8544 451.6841)" width="87.8" height="79.6"/>
			</defs>
			<clipPath id="SVGID_00000071544268004169217920000000109277283417711772_">
				<use xlink:href="#SVGID_00000035492066510396612570000008217384404171926433_"  style="overflow:visible;"/>
			</clipPath>
			<g style="clip-path:url(#SVGID_00000071544268004169217920000000109277283417711772_);">
				<g>
					<defs>
						
							<rect id="SVGID_00000115503951242916577180000009339557382157277352_" x="263.6" y="265.9" transform="matrix(0.4305 -0.9026 0.9026 0.4305 -100.8544 451.6841)" width="87.8" height="79.6"/>
					</defs>
					<clipPath id="SVGID_00000073712458504763624870000003861357555076446888_">
						<use xlink:href="#SVGID_00000115503951242916577180000009339557382157277352_"  style="overflow:visible;"/>
					</clipPath>
					<g style="clip-path:url(#SVGID_00000073712458504763624870000003861357555076446888_);">
						<path class="st12" d="M326.2,319l-4.3-50.5c0,0-5.1,0.6-11.1,2.5l0.4,5.1c1.6-0.1,3.3,0,5.1,0.2l3.7,36.6
							c0,0-41.5-4.8-60.6,12.2C259.5,325,283.4,310.6,326.2,319"/>
					</g>
				</g>
			</g>
		</g>
	</g>
</g>
<g>
	<defs>
		<rect id="SVGID_00000149383389859247254300000012421902154689453242_" x="257.3" y="280" width="82.7" height="50.7"/>
	</defs>
	<clipPath id="SVGID_00000173157319266652971380000018275138569234113154_">
		<use xlink:href="#SVGID_00000149383389859247254300000012421902154689453242_"  style="overflow:visible;"/>
	</clipPath>
	<g style="clip-path:url(#SVGID_00000173157319266652971380000018275138569234113154_);">
		<g>
			<defs>
				
					<rect id="SVGID_00000171702919241086958860000006340283922721406116_" x="263.6" y="265.9" transform="matrix(0.4305 -0.9026 0.9026 0.4305 -100.8544 451.6841)" width="87.8" height="79.6"/>
			</defs>
			<clipPath id="SVGID_00000114773495779501955940000013683218662685448116_">
				<use xlink:href="#SVGID_00000171702919241086958860000006340283922721406116_"  style="overflow:visible;"/>
			</clipPath>
			<g style="clip-path:url(#SVGID_00000114773495779501955940000013683218662685448116_);">
				<g>
					<defs>
						
							<rect id="SVGID_00000020391668028266496900000014741556305964363159_" x="263.6" y="265.9" transform="matrix(0.4305 -0.9026 0.9026 0.4305 -100.8544 451.6841)" width="87.8" height="79.6"/>
					</defs>
					<clipPath id="SVGID_00000150814524736144008660000009686437145560862378_">
						<use xlink:href="#SVGID_00000020391668028266496900000014741556305964363159_"  style="overflow:visible;"/>
					</clipPath>
					<g style="clip-path:url(#SVGID_00000150814524736144008660000009686437145560862378_);">
						<path class="st16" d="M335.4,280.1c0,0-5.1,0.6-11.1,2.5l0.4,5.1c1.6-0.1,3.3,0,5.1,0.2l3.7,36.6c0,0-49.1-11.1-76.1,5.9
							c0,0,29.8-10.4,82.3,0.3L335.4,280.1"/>
					</g>
				</g>
			</g>
		</g>
	</g>
</g>
<g>
	<defs>
		<rect id="SVGID_00000039101728664880548570000001428353150428980869_" x="261.3" y="257.3" width="52" height="62.7"/>
	</defs>
	<clipPath id="SVGID_00000152970913540087153250000016373481209877207190_">
		<use xlink:href="#SVGID_00000039101728664880548570000001428353150428980869_"  style="overflow:visible;"/>
	</clipPath>
	<g style="clip-path:url(#SVGID_00000152970913540087153250000016373481209877207190_);">
		<g>
			<defs>
				
					<rect id="SVGID_00000065074676094259273920000000312945933133914802_" x="263.6" y="265.9" transform="matrix(0.4305 -0.9026 0.9026 0.4305 -100.8544 451.6841)" width="87.8" height="79.6"/>
			</defs>
			<clipPath id="SVGID_00000112628376459952651220000015947428309628757151_">
				<use xlink:href="#SVGID_00000065074676094259273920000000312945933133914802_"  style="overflow:visible;"/>
			</clipPath>
			<g style="clip-path:url(#SVGID_00000112628376459952651220000015947428309628757151_);">
				<g>
					<defs>
						
							<rect id="SVGID_00000162338683484607625800000016600361907552962489_" x="263.6" y="265.9" transform="matrix(0.4305 -0.9026 0.9026 0.4305 -100.8544 451.6841)" width="87.8" height="79.6"/>
					</defs>
					<clipPath id="SVGID_00000092421963859033525720000009420285613913336452_">
						<use xlink:href="#SVGID_00000162338683484607625800000016600361907552962489_"  style="overflow:visible;"/>
					</clipPath>
					<g style="clip-path:url(#SVGID_00000092421963859033525720000009420285613913336452_);">
						<path class="st20" d="M261.8,318.7c0,0,20.5-16.3,50.9-10.7l-4.3-50.5c0,0-22.9,2.7-28.9,14.4c0,0,9-8.3,23.4-6.8l3.7,36.6
							C306.6,301.8,277.2,300.8,261.8,318.7"/>
					</g>
				</g>
			</g>
		</g>
	</g>
</g>
<g>
	<defs>
		<rect id="SVGID_00000000943852082288957060000009280591503885817277_" x="176" y="268" width="68" height="57.3"/>
	</defs>
	<clipPath id="SVGID_00000166661062066545256570000003633103568555418521_">
		<use xlink:href="#SVGID_00000000943852082288957060000009280591503885817277_"  style="overflow:visible;"/>
	</clipPath>
	<g style="clip-path:url(#SVGID_00000166661062066545256570000003633103568555418521_);">
		<g>
			<defs>
				
					<rect id="SVGID_00000121972119770615823410000015264795535602747011_" x="156.1" y="261.8" transform="matrix(0.9045 -0.4266 0.4266 0.9045 -111.7023 112.7721)" width="79.6" height="87.9"/>
			</defs>
			<clipPath id="SVGID_00000056393897687912987370000016565575833190597252_">
				<use xlink:href="#SVGID_00000121972119770615823410000015264795535602747011_"  style="overflow:visible;"/>
			</clipPath>
			<g style="clip-path:url(#SVGID_00000056393897687912987370000016565575833190597252_);">
				<g>
					<defs>
						
							<rect id="SVGID_00000060753449997825982970000002557989853639740290_" x="156" y="261.8" transform="matrix(0.9045 -0.4266 0.4266 0.9045 -111.7124 112.7581)" width="79.6" height="87.9"/>
					</defs>
					<clipPath id="SVGID_00000004518620753010884140000006007090426551179960_">
						<use xlink:href="#SVGID_00000060753449997825982970000002557989853639740290_"  style="overflow:visible;"/>
					</clipPath>
					<g style="clip-path:url(#SVGID_00000004518620753010884140000006007090426551179960_);">
						<path class="st12" d="M177.1,318.9l4.6-50.5c0,0,5.1,0.6,11,2.5l-0.5,5.1c-1.6-0.1-3.3-0.1-5.1,0.1l-3.9,36.6
							c0,0,41.5-4.6,60.6,12.5C243.8,325.2,219.9,310.7,177.1,318.9"/>
					</g>
				</g>
			</g>
		</g>
	</g>
</g>
<g>
	<defs>
		<rect id="SVGID_00000088853042764882504090000016285640658656761482_" x="162.7" y="278.7" width="84" height="52"/>
	</defs>
	<clipPath id="SVGID_00000027591921059519787900000006518618746413827500_">
		<use xlink:href="#SVGID_00000088853042764882504090000016285640658656761482_"  style="overflow:visible;"/>
	</clipPath>
	<g style="clip-path:url(#SVGID_00000027591921059519787900000006518618746413827500_);">
		<g>
			<defs>
				
					<rect id="SVGID_00000014611035160565642850000018348631693221918357_" x="156.1" y="261.8" transform="matrix(0.9045 -0.4266 0.4266 0.9045 -111.7023 112.7721)" width="79.6" height="87.9"/>
			</defs>
			<clipPath id="SVGID_00000127022667341894215790000009037619250395648187_">
				<use xlink:href="#SVGID_00000014611035160565642850000018348631693221918357_"  style="overflow:visible;"/>
			</clipPath>
			<g style="clip-path:url(#SVGID_00000127022667341894215790000009037619250395648187_);">
				<g>
					<defs>
						
							<rect id="SVGID_00000103232621981595940410000009765964125407138690_" x="156" y="261.8" transform="matrix(0.9045 -0.4266 0.4266 0.9045 -111.7124 112.7581)" width="79.6" height="87.9"/>
					</defs>
					<clipPath id="SVGID_00000062155328294442672170000001203162904933459127_">
						<use xlink:href="#SVGID_00000103232621981595940410000009765964125407138690_"  style="overflow:visible;"/>
					</clipPath>
					<g style="clip-path:url(#SVGID_00000062155328294442672170000001203162904933459127_);">
						<path class="st16" d="M168.1,280c0,0,5.1,0.6,11.1,2.5l-0.5,5.1c-1.6-0.1-3.3-0.1-5.1,0.1l-3.9,36.6c0,0,49.2-10.8,76.1,6.2
							c0,0-29.7-10.6-82.3,0L168.1,280"/>
					</g>
				</g>
			</g>
		</g>
	</g>
</g>
<g>
	<defs>
		<rect id="SVGID_00000095329685220189828090000009355120990593689009_" x="189.3" y="257.3" width="53.3" height="62.7"/>
	</defs>
	<clipPath id="SVGID_00000175314357102837415420000009109028592799534003_">
		<use xlink:href="#SVGID_00000095329685220189828090000009355120990593689009_"  style="overflow:visible;"/>
	</clipPath>
	<g style="clip-path:url(#SVGID_00000175314357102837415420000009109028592799534003_);">
		<g>
			<defs>
				
					<rect id="SVGID_00000089556095957522931900000011765457924741988743_" x="156.1" y="261.8" transform="matrix(0.9045 -0.4266 0.4266 0.9045 -111.7023 112.7721)" width="79.6" height="87.9"/>
			</defs>
			<clipPath id="SVGID_00000031894663393612134810000004677354022283139982_">
				<use xlink:href="#SVGID_00000089556095957522931900000011765457924741988743_"  style="overflow:visible;"/>
			</clipPath>
			<g style="clip-path:url(#SVGID_00000031894663393612134810000004677354022283139982_);">
				<g>
					<defs>
						
							<rect id="SVGID_00000061453462291989873500000010424581731410564499_" x="156" y="261.8" transform="matrix(0.9045 -0.4266 0.4266 0.9045 -111.7124 112.7581)" width="79.6" height="87.9"/>
					</defs>
					<clipPath id="SVGID_00000151544347358886078780000018281951140437995952_">
						<use xlink:href="#SVGID_00000061453462291989873500000010424581731410564499_"  style="overflow:visible;"/>
					</clipPath>
					<g style="clip-path:url(#SVGID_00000151544347358886078780000018281951140437995952_);">
						<path class="st20" d="M241.5,318.9c0,0-20.5-16.4-50.9-10.9l4.6-50.5c0,0,22.8,2.8,28.8,14.6c0,0-9-8.3-23.4-6.9l-3.9,36.6
							C196.7,301.8,226.1,300.9,241.5,318.9"/>
					</g>
				</g>
			</g>
		</g>
	</g>
</g>
<g>
	<defs>
		<rect id="SVGID_00000034800357398462509190000014192214865273506473_" x="213.7" y="222.6" width="61" height="20.1"/>
	</defs>
	<clipPath id="SVGID_00000170966897356443579850000006835480770673835918_">
		<use xlink:href="#SVGID_00000034800357398462509190000014192214865273506473_"  style="overflow:visible;"/>
	</clipPath>
	<g style="clip-path:url(#SVGID_00000170966897356443579850000006835480770673835918_);">
		<path class="st2" d="M273.6,232.8c-0.1,1-0.8,1.8-1.7,2.2l-19.6,7.1c-0.3,0.1-0.6,0.1-0.8,0.1c-0.3,0-0.6-0.1-0.8-0.1l-18.3-6.6
			c-0.6-0.2-0.9-0.9-0.6-1.4c0.2-0.5,0.8-0.7,1.3-0.5l18.2,6.6c0.1,0,0.2,0,0.2,0l19.7-7.1c0.2-0.1,0.2-0.2,0.2-0.3
			c0-0.1,0-0.3-0.2-0.3l-19.7-7.5c-0.1,0-0.2,0-0.3,0l-13.6,5.2c0.5,0.2,1,0.4,1.5,0.6c7.2,2.9,12.2,0.5,14-0.7
			c0.2-0.1,0.4-0.2,0.6-0.2c0.3,0,0.6,0.1,0.8,0.3c0.4,0.5,0.3,1.2-0.2,1.6c-2.2,1.4-7.8,4.2-15.9,0.9c-11.3-4.6-15.8-0.6-17.2,1.3
			l1.3,0.8l-3.2,5.1c-0.8,1.3-2.5,1.7-3.8,1c-1.4-0.8-1.9-2.6-1-4l3.1-5.1l1.8,1.1c1.5-2.1,5.7-6,14.9-3.7l16.2-6.2
			c0.6-0.2,1.2-0.2,1.8,0l19.7,7.5C273.1,230.7,273.7,231.7,273.6,232.8z"/>
	</g>
</g>
<g>
	<defs>
		<rect id="SVGID_00000057857976914006702010000015840238986717563801_" x="226.7" y="240" width="49.3" height="73.6"/>
	</defs>
	<clipPath id="SVGID_00000156565826315206143370000011075423136611786901_">
		<use xlink:href="#SVGID_00000057857976914006702010000015840238986717563801_"  style="overflow:visible;"/>
	</clipPath>
	<g style="clip-path:url(#SVGID_00000156565826315206143370000011075423136611786901_);">
		<path class="st2" d="M260.9,241.4l-8.6,3.1c-0.3,0.1-0.6,0.1-0.8,0.1c-0.3,0-0.6-0.1-0.8-0.1l-8.9-3.2c-4,13.9-15,25.1-15,25.1
			c3.2,3.7,6.3,8.5,9.2,13.8l8.8,19c1.6,4.2,4.3,10.7,5.5,14.7l-0.3-20.2c0.1-3,0.1-18.1,0.1-24.7c-1-0.5-1.6-1.5-1.6-2.6
			c0-1.6,1.3-2.9,2.9-3c1.6,0,2.9,1.3,2.9,3c0,1.2-0.7,2.1-1.6,2.6c-0.1,6.6-0.1,21.7,0.1,24.7l-0.3,20.2c1.2-4,3.9-10.4,5.5-14.7
			l8.8-19c2.9-5.3,6-10,9.2-13.8C275.9,266.4,265,255.2,260.9,241.4z"/>
	</g>
</g>
<g>
	<defs>
		<rect id="SVGID_00000138564311847974232010000010463309097834861959_" x="278.7" y="66.1" width="6.8" height="32.6"/>
	</defs>
	<clipPath id="SVGID_00000139257915608973050540000003454061613237567386_">
		<use xlink:href="#SVGID_00000138564311847974232010000010463309097834861959_"  style="overflow:visible;"/>
	</clipPath>
	<g style="clip-path:url(#SVGID_00000139257915608973050540000003454061613237567386_);">
		<path class="st16" d="M284.3,66.1l-4.4,2.7c0.4,3.3,0.7,6.7,0.8,10.1c0.1,3.1,0.2,9.5,0.3,19.2c1.1-1.2,1.7-2.1,2-2.8
			c0.5-1,0.7-2,0.8-2.9c0.2-1.3,0.3-3.2,0.4-5.5c0.1-2.8,0.1-6.8,0.1-12.2l1.6,0.8L284.3,66.1"/>
	</g>
</g>
<path class="st16" d="M264,71.7l-2,1.9l-2,1.9c1.4,1.2,2.9,2.4,4.3,3.6c1.2-1.3,2.5-2.5,3.7-3.8C266.7,74.1,265.3,72.9,264,71.7"/>
<path class="st16" d="M272.4,71.7l-2,1.9l-2,1.9c1.5,1.2,2.9,2.4,4.4,3.5c1.2-1.3,2.4-2.5,3.7-3.8C275.1,74.1,273.8,72.9,272.4,71.7
	"/>
<g>
	<defs>
		<rect id="SVGID_00000076578312835323555060000009352317642705966242_" x="216" y="80" width="61.3" height="29.1"/>
	</defs>
	<clipPath id="SVGID_00000149350369630034355410000008810483709846236817_">
		<use xlink:href="#SVGID_00000076578312835323555060000009352317642705966242_"  style="overflow:visible;"/>
	</clipPath>
	<g style="clip-path:url(#SVGID_00000149350369630034355410000008810483709846236817_);">
		<path class="st16" d="M269.5,80l-0.4,0c-2.4,0.2-4.1,1-5.2,2.4c-1.9,2.3-2.5,3.9-2,5c0.3,0.7,1.1,1.2,2.4,1.7
			c0.5,0.2,1.7,0.5,3.5,0.6c2.4,0,4.4-0.6,6-1.6c0.6,2.5,0.4,3.9-0.5,4.5c-0.5,0.3-1.5,0.7-3.2,1.1c-0.2,0.1-1.3,0.2-3.2,0.2
			c-3.4,0.1-11,0-22.7-0.5c-1.7,2.7-3.4,4.7-5,6.4c-0.8,0.8-2.7,2.6-6.3,3.8c-3.2,1-5.8,0.9-7.6,0.8c-0.8,0-1.6-0.2-2.3-0.3
			l-5.6-1.6c0,0.4,0.4,1.3,1.2,2.5c0.6,1,1.5,1.8,2.5,2.3c1.8,1,4.4,1.5,7.5,1.4c1.7,0,3.6-0.2,5.6-0.7c2.4-0.6,4.1-1.6,5.1-2.3
			c1.8-1.2,4.1-3.9,6.6-8.3c12.4,0.3,20.4,0.4,23.9,0.2c1.3-0.1,2.5-0.2,3.4-0.5c1.1-0.4,1.7-0.7,1.8-0.8c2.5-2.1,3.1-5.5,1.8-10.3
			c-0.4-1.3-1.3-2.9-3.2-4.5C272.5,80.4,271.1,80,269.5,80z M269,82.8L269,82.8c0.9,0,1.6,0.3,2.2,0.7c0.2,0.2,0.5,0.4,0.7,0.7
			c0.1,0.2,0.3,0.5,0.5,0.8c0,0,0,0.1,0,0.1c0,0.1-0.1,0.1-0.1,0.1c-0.7,0.2-1.2,0.3-1.6,0.3c-0.8,0.2-1.6,0.2-2.2,0.2
			c-0.8,0-1.3-0.1-1.6-0.3c-0.1-0.1-0.2-0.1-0.2-0.2l-0.1-0.1l-0.1-0.2c0-0.1,0-0.2,0-0.4c0.1-0.5,0.4-1,0.9-1.4
			C267.9,82.9,268.4,82.8,269,82.8z"/>
	</g>
</g>
<path class="st16" d="M218,77.1l-4.3,2.8c0.5,2.6,0.8,5.1,0.9,7.5c0.1,2.2,0.2,6.4,0.2,12.8c0.9-1.3,1.6-2.4,2-3.3
	c0.4-0.9,0.6-1.5,0.6-1.7c0.1-0.4,0.2-0.8,0.3-1.3c0.1-0.5,0.2-0.9,0.2-1.4c0-0.2,0.1-1,0.2-2.4c0-1.4,0-3.5-0.1-6.2l1.7,0.5
	L218,77.1"/>
<g>
	<defs>
		<rect id="SVGID_00000090274461990554563180000010913079510204117649_" x="212.5" y="66.7" width="8.9" height="12"/>
	</defs>
	<clipPath id="SVGID_00000129899533862206144810000013726275537558937010_">
		<use xlink:href="#SVGID_00000090274461990554563180000010913079510204117649_"  style="overflow:visible;"/>
	</clipPath>
	<g style="clip-path:url(#SVGID_00000129899533862206144810000013726275537558937010_);">
		<path class="st16" d="M218.1,67.8l0.3,2.5c-0.9,0.5-1.4,0.8-1.6,1.2c-0.1,0.1-0.2,0.3-0.2,0.6c0,0.2,0,0.5,0.1,0.7
			c0.3,0.4,0.8,0.6,1.4,0.5c0.6-0.1,1.3-0.4,2.2-1.1l-0.4,1.2l-7.4,4.7l2.9-3.6c-0.6-0.2-1-0.4-1.3-0.6c-0.3-0.2-0.5-0.5-0.6-0.8
			c-0.3-0.9-0.3-1.8,0.1-2.6c0.1-0.2,0.3-0.4,0.5-0.6c0.1-0.1,0.4-0.4,0.9-0.7C215.6,68.9,216.7,68.4,218.1,67.8"/>
	</g>
</g>
<g>
	<g transform="translate(62.43095, 113.030346)">
		<g>
			<path class="st2" d="M22.9,27.2l2,0.9l-3.6,8.4l-10.8-4.6l3.5-8.2l2,0.9l-2.4,5.7l2.3,1l2.1-5l2,0.8l-2.1,5l2.5,1.1L22.9,27.2z"
				/>
		</g>
	</g>
</g>
<g>
	<g transform="translate(66.435737, 103.704152)">
		<g>
			<path class="st2" d="M12.4,27.9l2.5-4.7c0.6-1.1,1.3-2,2.2-2.6c0.9-0.7,1.8-1,2.9-1.1c1-0.1,2.1,0.2,3.1,0.7
				c1,0.6,1.8,1.3,2.4,2.2c0.5,0.9,0.8,1.9,0.8,3c0,1.1-0.3,2.2-0.9,3.3l-2.5,4.7L12.4,27.9z M23.2,27.7c0.5-1,0.7-2,0.4-2.9
				c-0.2-0.9-0.9-1.7-1.9-2.2c-1-0.5-1.9-0.6-2.9-0.3c-0.9,0.3-1.6,1-2.2,2l-1.2,2.2l6.4,3.4L23.2,27.7z"/>
		</g>
	</g>
</g>
<g>
	<g transform="translate(72.150079, 93.06169)">
		<g>
			<path class="st2" d="M27.8,25.6c-0.9,1.4-2,2.3-3.3,2.6c-1.3,0.3-2.6-0.1-4.1-1l-5.5-3.6l1.5-2.3l5.5,3.5c1.8,1.1,3.1,1,4-0.5
				c0.5-0.7,0.6-1.4,0.4-2.1c-0.2-0.7-0.7-1.3-1.6-1.9l-5.5-3.5l1.5-2.3l5.5,3.6c1.4,0.9,2.3,2.1,2.6,3.4
				C29,22.8,28.7,24.2,27.8,25.6z"/>
		</g>
	</g>
</g>
<g>
	<g transform="translate(78.531119, 83.353436)">
		<g>
			<path class="st2" d="M30.6,22.3C29.9,23.3,29,24,28,24.5c-1,0.4-2,0.6-3.1,0.5c-1.1-0.1-2.1-0.5-3-1.3c-0.9-0.7-1.6-1.6-2-2.6
				c-0.4-1-0.5-2-0.3-3.1c0.2-1.1,0.6-2.1,1.4-3.1c0.6-0.8,1.3-1.4,2.1-1.9c0.8-0.4,1.6-0.7,2.5-0.7l0.2,2.4
				c-1.2,0.1-2.2,0.6-2.9,1.5c-0.4,0.6-0.7,1.2-0.8,1.8c-0.1,0.6,0,1.3,0.2,1.9c0.3,0.6,0.7,1.1,1.2,1.5c0.6,0.4,1.2,0.7,1.8,0.8
				c0.7,0.1,1.3,0,1.9-0.2c0.6-0.3,1.1-0.7,1.5-1.2c0.7-0.9,1-2,0.7-3.2l2.4-0.4c0.2,0.9,0.2,1.7,0,2.6
				C31.7,20.7,31.3,21.6,30.6,22.3z"/>
		</g>
	</g>
</g>
<g>
	<g transform="translate(85.268716, 74.75036)">
		<g>
			<path class="st2" d="M32.7,16.5l-3.7,4l1.1,2.5L28.3,25l-5.1-11.8l1.8-2l12.2,4.1l-1.9,2.1L32.7,16.5z M30.6,15.7L26.1,14l2,4.4
				L30.6,15.7z"/>
		</g>
	</g>
</g>
<g>
	<g transform="translate(93.018665, 66.44017)">
		<g>
			<path class="st2" d="M27.3,12.5l-2.8,2.6L23,13.5l7.5-7L32,8.1l-2.8,2.6l6.5,7l-2,1.8L27.3,12.5z"/>
		</g>
	</g>
</g>
<g>
	<g transform="translate(100.009736, 59.983641)">
		<g>
			<path class="st2" d="M40.1,11.7l1.4,1.7l-7.1,5.7L27,10L34,4.4l1.4,1.7L30.5,10l1.6,2l4.3-3.4l1.3,1.7l-4.3,3.4l1.7,2.1
				L40.1,11.7z"/>
		</g>
	</g>
</g>
<g>
	<g transform="translate(108.063318, 53.66083)">
	</g>
</g>
<g>
	<g transform="translate(112.429101, 50.53925)">
		<g>
			<path class="st2" d="M35.6,6.7l-3.2,2l-1.2-1.9l8.7-5.5l1.2,1.9l-3.2,2l5.1,8.1l-2.3,1.5L35.6,6.7z"/>
		</g>
	</g>
</g>
<g>
	<g transform="translate(120.46768, 45.485561)">
		<g>
			<path class="st2" d="M45.5-0.9l5.5,10.4l-2.4,1.2l-2.2-4.3L41.6,9l2.2,4.3l-2.4,1.3L35.9,4.1l2.4-1.3l2.1,4.1l4.8-2.5l-2.1-4.1
				L45.5-0.9z"/>
		</g>
	</g>
</g>
<g>
	<g transform="translate(131.030236, 40.060154)">
		<g>
			<path class="st2" d="M52.5,7.2l0.9,2L45,12.8L40.4,2l8.2-3.5l0.9,2l-5.7,2.4l1,2.4l5-2.1l0.8,2l-5,2.1l1.1,2.5L52.5,7.2z"/>
		</g>
	</g>
</g>
<g>
	<g transform="translate(140.503408, 36.175321)">
	</g>
</g>
<g>
	<g transform="translate(145.478063, 34.306525)">
		<g>
			<path class="st2" d="M60.1,8.2l-1.9-6.8l-1.8,6.5l-1.2,0.3l-4.9-4.5l1.9,6.6l-2.4,0.7L46.7-0.3l2.2-0.6L55.1,5l2.2-8.2l2.1-0.6
				l3.2,11.3L60.1,8.2z"/>
		</g>
	</g>
</g>
<g>
	<g transform="translate(158.783234, 30.817826)">
		<g>
			<path class="st2" d="M52-1.5l2.6-0.5l2.3,11.5L54.3,10L52-1.5z"/>
		</g>
	</g>
</g>
<g>
	<g transform="translate(164.554666, 29.615159)">
		<g>
			<path class="st2" d="M65.4-3.4l1.5,11.6l-2.2,0.3L58,2.2l0.9,7.1l-2.7,0.4L54.7-2l2.2-0.3L63.6,4L62.7-3L65.4-3.4z"/>
		</g>
	</g>
</g>
<g>
	<g transform="translate(176.311606, 28.129718)">
		<g>
			<path class="st2" d="M59.7-2.4L65-2.6c1.3-0.1,2.4,0.1,3.4,0.6c1,0.4,1.8,1.1,2.4,2c0.6,0.8,0.9,1.9,0.9,3
				c0.1,1.2-0.2,2.2-0.7,3.1c-0.5,0.9-1.2,1.6-2.2,2.1c-0.9,0.5-2.1,0.8-3.3,0.9l-5.3,0.2L59.7-2.4z M65.3,6.9
				c1.2-0.1,2.1-0.4,2.8-1.1c0.7-0.7,1-1.6,0.9-2.7c0-1.1-0.4-2-1.2-2.6c-0.7-0.6-1.7-0.9-2.8-0.9l-2.5,0.1L62.8,7L65.3,6.9z"/>
		</g>
	</g>
</g>
<g>
	<g transform="translate(188.472371, 27.787566)">
		<g>
			<path class="st2" d="M65.1,6.2c0.5,0,0.9,0.2,1.1,0.5c0.3,0.3,0.5,0.7,0.5,1.2c0,0.2-0.1,0.5-0.1,0.7c-0.1,0.2-0.2,0.6-0.4,1
				l-1,2.4l-1.7,0l0.8-2.6c-0.3-0.1-0.5-0.3-0.7-0.6c-0.2-0.2-0.2-0.5-0.2-0.9c0-0.5,0.2-0.9,0.5-1.1C64.2,6.3,64.6,6.2,65.1,6.2z"
				/>
		</g>
	</g>
</g>
<g>
	<g transform="translate(193.632892, 27.936637)">
	</g>
</g>
<g>
	<g transform="translate(198.973265, 28.235306)">
		<g>
			<path class="st2" d="M74.2-1.5c1,0.1,1.9,0.4,2.6,0.9c0.7,0.4,1.2,1,1.6,1.7c0.3,0.7,0.5,1.5,0.4,2.3c-0.1,0.8-0.4,1.6-0.9,2.2
				c-0.5,0.6-1.1,1-1.9,1.2C75.1,7,74.2,7.1,73.2,7l-2.4-0.3l-0.4,3.2l-2.7-0.3l1.4-11.7L74.2-1.5z M73.3,4.8c0.8,0.1,1.4,0,1.9-0.3
				c0.5-0.3,0.8-0.8,0.8-1.4c0.1-0.7-0.1-1.2-0.5-1.6c-0.4-0.4-1-0.7-1.8-0.8l-2.2-0.3l-0.5,4.1L73.3,4.8z"/>
		</g>
	</g>
</g>
<g>
	<g transform="translate(209.796981, 29.628866)">
		<g>
			<path class="st2" d="M76.4,11.4c-1.6-0.3-2.8-1.1-3.6-2.1c-0.7-1.1-0.9-2.5-0.5-4.2l1.4-6.4l2.7,0.6L75,5.5
				c-0.4,2.1,0.2,3.3,1.9,3.6c0.8,0.2,1.5,0.1,2.1-0.3c0.5-0.4,0.9-1.1,1.1-2.2l1.3-6.3L84,0.8l-1.4,6.4c-0.4,1.7-1.1,2.9-2.2,3.6
				C79.4,11.6,78,11.8,76.4,11.4z"/>
		</g>
	</g>
</g>
<g>
	<g transform="translate(221.147228, 32.101144)">
		<g>
			<path class="st2" d="M82.2,13.2L81,9.5l-0.1,0l-2.3-0.7l-0.9,3.1L75,11.1l3.4-11.2l4.9,1.5c1,0.3,1.8,0.7,2.4,1.3
				c0.6,0.6,1.1,1.2,1.3,1.9c0.2,0.7,0.2,1.5,0,2.3s-0.7,1.5-1.2,2c-0.6,0.5-1.3,0.8-2.1,0.9l1.5,4.4L82.2,13.2z M84.3,6.1
				c0.2-0.6,0.1-1.2-0.2-1.6c-0.3-0.5-0.8-0.8-1.6-1.1l-2.1-0.6l-1.2,3.9l2.1,0.6c0.8,0.2,1.4,0.2,1.9,0C83.8,7.1,84.1,6.7,84.3,6.1
				z"/>
		</g>
	</g>
</g>
<g>
	<g transform="translate(231.66751, 35.399234)">
		<g>
			<path class="st2" d="M82.6,1.3l2.5,0.9l-4.1,11l-2.5-0.9L82.6,1.3z"/>
		</g>
	</g>
</g>
<g>
	<g transform="translate(237.223047, 37.45066)">
		<g>
			<path class="st2" d="M86.7,5.4l-1.2,2.8l5,2.2l-0.9,2l-5-2.2l-1.7,3.9L80.3,13l4.7-10.8l8.1,3.6l-0.9,2L86.7,5.4z"/>
		</g>
	</g>
</g>
<g>
	<g transform="translate(246.15258, 41.43116)">
		<g>
			<path class="st2" d="M90.2,13.4l-2,3.7l-2.4-1.3l2-3.7l-0.5-8.8l2.5,1.4l0.3,6.1l5.2-3.1l2.4,1.3L90.2,13.4z"/>
		</g>
	</g>
</g>
<g>
	<g transform="translate(255.189214, 46.376366)">
	</g>
</g>
<g>
	<g transform="translate(259.778028, 49.159853)">
		<g>
			<path class="st2" d="M95.2,10.7l-3.1-2.1l1.2-1.8l8.5,5.8l-1.2,1.8l-3.1-2.1L92,20.1l-2.2-1.5L95.2,10.7z"/>
		</g>
	</g>
</g>
<g>
	<g transform="translate(267.587517, 54.560857)">
		<g>
			<path class="st2" d="M106.1,16.7l-7.4,9.1l-2.1-1.7l3-3.7L95.4,17l-3,3.7l-2.1-1.7l7.4-9.1l2.1,1.7l-2.9,3.6l4.1,3.4l2.9-3.6
				L106.1,16.7z"/>
		</g>
	</g>
</g>
<g>
	<g transform="translate(276.734417, 62.132575)">
		<g>
			<path class="st2" d="M101.3,26.4L99.8,28l-6.6-6.3l8.1-8.5l6.4,6.1l-1.5,1.6l-4.5-4.3l-1.8,1.8l3.9,3.8l-1.5,1.5L98.6,20l-1.9,2
				L101.3,26.4z"/>
		</g>
	</g>
</g>
<g>
	<g transform="translate(284.033874, 69.313011)">
	</g>
</g>
<g>
	<g transform="translate(287.690981, 73.234818)">
		<g>
			<path class="st2" d="M99.1,28.6c-0.6-0.7-1.1-1.5-1.4-2.3c-0.3-0.8-0.5-1.6-0.5-2.2l2.2-0.6c0,0.6,0.2,1.2,0.4,1.9
				c0.3,0.7,0.6,1.3,1.1,1.8c0.5,0.6,1,1,1.4,1.1c0.4,0.1,0.8,0.1,1.1-0.1c0.2-0.2,0.3-0.4,0.3-0.7c0-0.3-0.1-0.6-0.2-0.9
				c-0.1-0.3-0.3-0.8-0.6-1.3c-0.4-0.8-0.7-1.5-0.9-2.1c-0.2-0.6-0.2-1.2-0.1-1.8c0.1-0.6,0.5-1.2,1.1-1.7c0.5-0.4,1.1-0.7,1.8-0.8
				c0.7-0.1,1.3,0.1,2.1,0.5c0.7,0.4,1.4,1,2.1,1.8c0.5,0.6,0.9,1.2,1.2,1.9c0.3,0.7,0.5,1.3,0.6,1.9l-2.1,0.7
				c-0.2-1.2-0.7-2.2-1.4-3.1c-0.5-0.6-0.9-0.9-1.4-1.1c-0.4-0.1-0.8-0.1-1.1,0.2c-0.3,0.2-0.4,0.6-0.3,1.1c0.1,0.5,0.4,1.1,0.8,1.8
				c0.4,0.8,0.7,1.6,0.9,2.1c0.2,0.6,0.3,1.2,0.2,1.8c-0.1,0.6-0.5,1.2-1.1,1.7c-0.5,0.4-1.1,0.7-1.8,0.7c-0.7,0.1-1.3-0.1-2.1-0.5
				C100.5,30,99.8,29.4,99.1,28.6z"/>
		</g>
	</g>
</g>
<g>
	<g transform="translate(293.882192, 80.750704)">
		<g>
			<path class="st2" d="M101.8,32.9c-0.7-1-1.1-2.1-1.2-3.2c-0.1-1.1,0-2.2,0.5-3.1c0.4-1,1.1-1.8,2.1-2.5c1-0.7,2-1,3-1.1
				c1.1-0.1,2.1,0.2,3.1,0.7c1,0.5,1.8,1.2,2.5,2.2c0.7,1,1.1,2,1.2,3.1c0.1,1.1,0,2.1-0.5,3.1c-0.4,1-1.1,1.8-2.1,2.5
				c-0.9,0.7-2,1-3,1.1c-1.1,0.1-2.1-0.1-3.1-0.6C103.4,34.6,102.5,33.9,101.8,32.9z M103.8,31.5c0.4,0.6,0.9,1,1.5,1.3
				c0.6,0.3,1.2,0.4,1.9,0.3c0.7-0.1,1.3-0.3,1.9-0.7c0.6-0.4,1-0.9,1.3-1.5c0.3-0.6,0.4-1.2,0.4-1.9c-0.1-0.7-0.3-1.3-0.7-1.8
				c-0.4-0.6-0.9-1-1.5-1.2c-0.6-0.3-1.2-0.4-1.9-0.3c-0.7,0.1-1.3,0.3-1.9,0.7c-0.6,0.4-1,0.9-1.3,1.5c-0.3,0.6-0.4,1.2-0.4,1.8
				C103.1,30.3,103.4,30.9,103.8,31.5z"/>
		</g>
	</g>
</g>
<g>
	<g transform="translate(300.837118, 90.900668)">
		<g>
			<path class="st2" d="M103.4,36.2c-0.8-1.5-1.1-2.8-0.7-4.1c0.3-1.3,1.3-2.3,2.8-3.2l5.7-3.3l1.4,2.4l-5.6,3.2
				c-1.8,1-2.3,2.3-1.4,3.8c0.4,0.8,0.9,1.2,1.6,1.3c0.7,0.1,1.5-0.1,2.4-0.6l5.6-3.2l1.3,2.3l-5.7,3.3c-1.5,0.9-2.9,1.1-4.1,0.8
				C105.2,38.5,104.2,37.6,103.4,36.2z"/>
		</g>
	</g>
</g>
<g>
	<g transform="translate(306.509483, 101.063275)">
		<g>
			<path class="st2" d="M113.4,29.9l1.1,2.4l-8.6,4.1l2.5,5.3l-2,0.9l-3.7-7.8L113.4,29.9z"/>
		</g>
	</g>
</g>
<g>
	<g transform="translate(310.427715, 109.612647)">
		<g>
			<path class="st2" d="M114.7,32.9l1.2,2.9l-7.3,2.4l-0.8-1.9L114.7,32.9z M104.3,38.8c-0.2-0.4-0.2-0.8,0-1.2
				c0.2-0.4,0.4-0.7,0.8-0.8c0.4-0.2,0.8-0.2,1.2,0c0.4,0.2,0.7,0.5,0.8,0.9c0.2,0.4,0.2,0.9,0,1.2c-0.2,0.4-0.4,0.7-0.8,0.8
				c-0.4,0.2-0.8,0.1-1.2,0C104.7,39.6,104.4,39.3,104.3,38.8z"/>
		</g>
	</g>
</g>
<g>
	<g transform="translate(126.568437, 116.971384)">
		<g>
			<path class="st16" d="M53.2,32.3c0.7,0.2,1.3,0.6,1.7,1.2c0.4,0.5,0.6,1.2,0.6,2c0,1.1-0.4,2-1.3,2.6c-0.9,0.6-2.2,0.9-3.8,0.9
				h-6.7V26.1H50c1.6,0,2.8,0.3,3.6,0.9c0.8,0.6,1.3,1.4,1.3,2.4c0,0.6-0.2,1.2-0.5,1.7C54.1,31.6,53.7,32,53.2,32.3z M46.7,28.3v3
				h3c0.7,0,1.3-0.1,1.7-0.4c0.4-0.3,0.6-0.6,0.6-1.1c0-0.5-0.2-0.9-0.6-1.1c-0.4-0.2-0.9-0.4-1.7-0.4H46.7z M50.2,36.7
				c0.8,0,1.4-0.1,1.8-0.4c0.4-0.3,0.6-0.7,0.6-1.2c0-1.1-0.8-1.6-2.4-1.6h-3.5v3.2H50.2z"/>
		</g>
	</g>
</g>
<g>
	<g transform="translate(139.339015, 116.971384)">
		<g>
			<path class="st16" d="M56.2,39l-2.5-3.6H51V39h-3V26.1h5.6c1.1,0,2.1,0.2,3,0.6c0.8,0.4,1.5,0.9,1.9,1.6c0.5,0.7,0.7,1.5,0.7,2.5
				c0,1-0.2,1.8-0.7,2.5c-0.5,0.7-1.1,1.2-2,1.6l2.9,4.1H56.2z M56.1,30.8c0-0.7-0.2-1.3-0.7-1.7c-0.5-0.4-1.1-0.6-2-0.6H51V33h2.4
				c0.9,0,1.6-0.2,2-0.6C55.9,32,56.1,31.5,56.1,30.8z"/>
		</g>
	</g>
</g>
<g>
	<g transform="translate(151.695455, 116.971384)">
		<g>
			<path class="st16" d="M52.1,26.1h3V39h-3V26.1z"/>
		</g>
	</g>
</g>
<g>
	<g transform="translate(158.433418, 116.971384)">
		<g>
			<path class="st16" d="M63.1,32.3h2.7v5.2c-0.7,0.5-1.5,0.9-2.4,1.2c-0.9,0.3-1.8,0.4-2.8,0.4c-1.3,0-2.5-0.3-3.6-0.9
				C55.9,37.8,55,37,54.4,36c-0.6-1-0.9-2.2-0.9-3.4c0-1.3,0.3-2.4,0.9-3.4c0.6-1,1.5-1.8,2.5-2.4c1.1-0.6,2.3-0.9,3.6-0.9
				c1.1,0,2.1,0.2,3.1,0.6c0.9,0.4,1.7,0.9,2.3,1.7l-1.9,1.8c-0.9-1-2-1.4-3.3-1.4c-0.8,0-1.6,0.2-2.2,0.5c-0.6,0.3-1.1,0.8-1.5,1.4
				c-0.4,0.6-0.5,1.3-0.5,2.2c0,0.8,0.2,1.5,0.5,2.1c0.4,0.6,0.9,1.1,1.5,1.5c0.6,0.3,1.4,0.5,2.2,0.5c0.9,0,1.6-0.2,2.3-0.6V32.3z"
				/>
		</g>
	</g>
</g>
<g>
	<g transform="translate(171.286829, 116.971384)">
		<g>
			<path class="st16" d="M70.4,26.1V39h-3v-5.3h-5.9V39h-3V26.1h3v5.1h5.9v-5.1H70.4z"/>
		</g>
	</g>
</g>
<g>
	<g transform="translate(184.65101, 116.971384)">
		<g>
			<path class="st16" d="M65.8,28.5h-4.1v-2.4h11.2v2.4h-4.1V39h-3V28.5z"/>
		</g>
	</g>
</g>
<g>
	<g transform="translate(195.392314, 116.971384)">
	</g>
</g>
<g>
	<g transform="translate(201.509072, 116.971384)">
		<g>
			<path class="st16" d="M80.4,39v-7.7l-3.8,6.4h-1.3l-3.8-6.2V39h-2.8V26.1h2.5l4.8,8l4.8-8h2.4l0,12.9H80.4z"/>
		</g>
	</g>
</g>
<g>
	<g transform="translate(216.90253, 116.971384)">
		<g>
			<path class="st16" d="M73.8,26.1h3V39h-3V26.1z"/>
		</g>
	</g>
</g>
<g>
	<g transform="translate(223.64049, 116.971384)">
		<g>
			<path class="st16" d="M87.9,26.1V39h-2.5L79,31.2V39h-3V26.1h2.5l6.4,7.8v-7.8H87.9z"/>
		</g>
	</g>
</g>
<g>
	<g transform="translate(237.004671, 116.971384)">
		<g>
			<path class="st16" d="M80.5,26.1h5.9c1.4,0,2.6,0.3,3.7,0.8c1.1,0.5,1.9,1.3,2.5,2.2c0.6,1,0.9,2.1,0.9,3.4
				c0,1.3-0.3,2.4-0.9,3.4c-0.6,1-1.4,1.7-2.5,2.3C89,38.7,87.8,39,86.4,39h-5.9V26.1z M86.2,36.5c1.3,0,2.3-0.4,3.1-1.1
				c0.8-0.7,1.2-1.7,1.2-2.9c0-1.2-0.4-2.2-1.2-2.9c-0.8-0.7-1.8-1.1-3.1-1.1h-2.7v8H86.2z"/>
		</g>
	</g>
</g>
<g>
	<g transform="translate(114.17, 135.721383)">
		<g>
			<path class="st2" d="M39.6,32.3h3v12.9h-3V32.3z"/>
		</g>
	</g>
</g>
<g>
	<g transform="translate(120.907964, 135.721383)">
		<g>
			<path class="st2" d="M53.7,32.3v12.9h-2.5l-6.4-7.8v7.8h-3V32.3h2.5l6.4,7.8v-7.8H53.7z"/>
		</g>
	</g>
</g>
<g>
	<g transform="translate(134.272148, 135.721383)">
		<g>
			<path class="st2" d="M49,34.8h-4.1v-2.4h11.2v2.4h-4.1v10.5h-3V34.8z"/>
		</g>
	</g>
</g>
<g>
	<g transform="translate(145.013449, 135.721383)">
		<g>
			<path class="st2" d="M59.9,42.8v2.4h-10V32.3h9.8v2.4h-6.8v2.8h6v2.3h-6v3H59.9z"/>
		</g>
	</g>
</g>
<g>
	<g transform="translate(156.486393, 135.721383)">
		<g>
			<path class="st2" d="M61.9,45.2l-2.5-3.6h-2.7v3.6h-3V32.3h5.6c1.1,0,2.1,0.2,3,0.6c0.8,0.4,1.5,0.9,1.9,1.6
				c0.5,0.7,0.7,1.5,0.7,2.5s-0.2,1.8-0.7,2.5c-0.5,0.7-1.1,1.2-2,1.6l2.9,4.1H61.9z M61.8,37c0-0.7-0.2-1.3-0.7-1.7
				c-0.5-0.4-1.1-0.6-2-0.6h-2.4v4.5h2.4c0.9,0,1.6-0.2,2-0.6C61.6,38.3,61.8,37.7,61.8,37z"/>
		</g>
	</g>
</g>
<g>
	<g transform="translate(168.84283, 135.721383)">
		<g>
			<path class="st2" d="M69.6,32.3v12.9h-2.5l-6.4-7.8v7.8h-3V32.3h2.5l6.4,7.8v-7.8H69.6z"/>
		</g>
	</g>
</g>
<g>
	<g transform="translate(182.207011, 135.721383)">
		<g>
			<path class="st2" d="M70.8,42.5h-6l-1.1,2.8h-3.1l5.8-12.9h2.9L75,45.2h-3.1L70.8,42.5z M69.8,40.2l-2-4.9l-2,4.9H69.8z"/>
		</g>
	</g>
</g>
<g>
	<g transform="translate(194.991388, 135.721383)">
		<g>
			<path class="st2" d="M69.2,34.8h-4.1v-2.4h11.2v2.4h-4.1v10.5h-3V34.8z"/>
		</g>
	</g>
</g>
<g>
	<g transform="translate(205.732692, 135.721383)">
		<g>
			<path class="st2" d="M70.1,32.3h3v12.9h-3V32.3z"/>
		</g>
	</g>
</g>
<g>
	<g transform="translate(212.470658, 135.721383)">
		<g>
			<path class="st2" d="M78.6,45.5c-1.3,0-2.5-0.3-3.6-0.9c-1.1-0.6-1.9-1.4-2.5-2.4c-0.6-1-0.9-2.2-0.9-3.4c0-1.3,0.3-2.4,0.9-3.4
				c0.6-1,1.4-1.8,2.5-2.4c1.1-0.6,2.3-0.9,3.6-0.9c1.3,0,2.5,0.3,3.6,0.9c1.1,0.6,1.9,1.4,2.5,2.4c0.6,1,0.9,2.2,0.9,3.4
				c0,1.3-0.3,2.4-0.9,3.4c-0.6,1-1.5,1.8-2.5,2.4C81.1,45.2,79.9,45.5,78.6,45.5z M78.6,42.9c0.8,0,1.4-0.2,2.1-0.5
				c0.6-0.4,1.1-0.9,1.4-1.5c0.4-0.6,0.5-1.3,0.5-2.1c0-0.8-0.2-1.5-0.5-2.1c-0.3-0.6-0.8-1.1-1.4-1.5c-0.6-0.3-1.3-0.5-2.1-0.5
				c-0.8,0-1.5,0.2-2.1,0.5c-0.6,0.3-1.1,0.8-1.5,1.5c-0.3,0.6-0.5,1.3-0.5,2.1c0,0.8,0.2,1.5,0.5,2.1c0.4,0.6,0.8,1.1,1.5,1.5
				C77.1,42.8,77.8,42.9,78.6,42.9z"/>
		</g>
	</g>
</g>
<g>
	<g transform="translate(226.331798, 135.721383)">
		<g>
			<path class="st2" d="M88.8,32.3v12.9h-2.5l-6.4-7.8v7.8h-3V32.3h2.5l6.4,7.8v-7.8H88.8z"/>
		</g>
	</g>
</g>
<g>
	<g transform="translate(239.695979, 135.721383)">
		<g>
			<path class="st2" d="M89.9,42.5h-6l-1.1,2.8h-3.1l5.8-12.9h2.9l5.8,12.9h-3.1L89.9,42.5z M89,40.2l-2-4.9l-2,4.9H89z"/>
		</g>
	</g>
</g>
<g>
	<g transform="translate(252.480356, 135.721383)">
		<g>
			<path class="st2" d="M85.7,32.3h3v10.5h6.5v2.4h-9.5V32.3z"/>
		</g>
	</g>
</g>
<g>
	<g transform="translate(143.630936, 154.471382)">
		<g>
			<path class="st2" d="M57.9,48.7h-6l-1.1,2.8h-3.1l5.8-12.9h2.9l5.8,12.9H59L57.9,48.7z M57,46.5l-2-4.9l-2,4.9H57z"/>
		</g>
	</g>
</g>
<g>
	<g transform="translate(156.415316, 154.471382)">
		<g>
			<path class="st2" d="M59.8,51.7c-1.3,0-2.5-0.3-3.6-0.9c-1.1-0.6-1.9-1.4-2.5-2.4c-0.6-1-0.9-2.2-0.9-3.4c0-1.3,0.3-2.4,0.9-3.4
				c0.6-1,1.4-1.8,2.5-2.4c1.1-0.6,2.3-0.9,3.6-0.9c1.1,0,2.1,0.2,3,0.6c0.9,0.4,1.7,1,2.3,1.7l-1.9,1.8c-0.9-1-2-1.5-3.2-1.5
				c-0.8,0-1.5,0.2-2.1,0.5c-0.6,0.3-1.1,0.8-1.5,1.5c-0.3,0.6-0.5,1.3-0.5,2.1c0,0.8,0.2,1.5,0.5,2.1c0.4,0.6,0.9,1.1,1.5,1.5
				c0.6,0.3,1.3,0.5,2.1,0.5c1.3,0,2.4-0.5,3.2-1.5l1.9,1.8c-0.6,0.8-1.4,1.3-2.3,1.7C62,51.5,61,51.7,59.8,51.7z"/>
		</g>
	</g>
</g>
<g>
	<g transform="translate(168.744152, 154.471382)">
		<g>
			<path class="st2" d="M66.3,48.7h-6l-1.1,2.8h-3.1l5.8-12.9h2.9l5.8,12.9h-3.1L66.3,48.7z M65.3,46.5l-2-4.9l-2,4.9H65.3z"/>
		</g>
	</g>
</g>
<g>
	<g transform="translate(181.528532, 154.471382)">
		<g>
			<path class="st2" d="M62,38.6h5.9c1.4,0,2.6,0.3,3.7,0.8c1.1,0.5,1.9,1.3,2.5,2.2c0.6,1,0.9,2.1,0.9,3.4c0,1.3-0.3,2.4-0.9,3.4
				c-0.6,1-1.4,1.7-2.5,2.3c-1.1,0.5-2.3,0.8-3.7,0.8H62V38.6z M67.7,49c1.3,0,2.3-0.4,3.1-1.1c0.8-0.7,1.2-1.7,1.2-2.9
				c0-1.2-0.4-2.2-1.2-2.9c-0.8-0.7-1.8-1.1-3.1-1.1H65v8H67.7z"/>
		</g>
	</g>
</g>
<g>
	<g transform="translate(195.14119, 154.471382)">
		<g>
			<path class="st2" d="M76.6,49.1v2.4h-10V38.6h9.8V41h-6.8v2.8h6v2.3h-6v3H76.6z"/>
		</g>
	</g>
</g>
<g>
	<g transform="translate(206.614137, 154.471382)">
		<g>
			<path class="st2" d="M82.1,51.5v-7.7l-3.8,6.4H77l-3.8-6.2v7.6h-2.8V38.6h2.5l4.8,8l4.8-8h2.4l0,12.9H82.1z"/>
		</g>
	</g>
</g>
<g>
	<g transform="translate(222.007601, 154.471382)">
		<g>
			<path class="st2" d="M81.7,46.9v4.6h-3v-4.6l-5-8.3h3.2l3.4,5.7l3.4-5.7h2.9L81.7,46.9z"/>
		</g>
	</g>
</g>
<g>
	<g transform="translate(167.802385, 338.368689)">
		<g>
			<path class="st16" d="M66.3,110.4v2.4h-9.7v-1.9l5-4.7c0.5-0.5,0.9-0.9,1.1-1.3c0.2-0.4,0.3-0.7,0.3-1.1c0-0.5-0.2-0.9-0.5-1.2
				c-0.3-0.3-0.9-0.4-1.5-0.4c-0.6,0-1.1,0.1-1.5,0.3c-0.5,0.2-0.8,0.5-1.1,1l-2.2-1.4c0.5-0.8,1.2-1.3,2.1-1.8
				c0.9-0.4,1.9-0.6,3.1-0.6c1,0,1.8,0.2,2.5,0.5c0.7,0.3,1.3,0.7,1.7,1.3c0.4,0.6,0.6,1.2,0.6,2c0,0.7-0.1,1.3-0.4,2
				c-0.3,0.6-0.9,1.3-1.7,2.1l-3,2.8H66.3z"/>
		</g>
	</g>
</g>
<g>
	<g transform="translate(178.157163, 338.368689)">
		<g>
			<path class="st16" d="M65.6,113c-1.1,0-2-0.3-2.9-0.8c-0.8-0.5-1.5-1.3-2-2.3c-0.5-1-0.7-2.2-0.7-3.6c0-1.4,0.2-2.6,0.7-3.6
				c0.5-1,1.1-1.8,2-2.3c0.8-0.5,1.8-0.8,2.9-0.8c1.1,0,2,0.3,2.9,0.8c0.8,0.5,1.5,1.3,2,2.3c0.5,1,0.7,2.2,0.7,3.6
				c0,1.4-0.2,2.6-0.7,3.6c-0.5,1-1.1,1.8-2,2.3C67.7,112.8,66.7,113,65.6,113z M65.6,110.5c0.8,0,1.4-0.3,1.8-1
				c0.5-0.7,0.7-1.7,0.7-3.1c0-1.4-0.2-2.5-0.7-3.1c-0.4-0.7-1.1-1-1.8-1c-0.8,0-1.4,0.3-1.9,1c-0.4,0.7-0.7,1.7-0.7,3.1
				c0,1.4,0.2,2.4,0.7,3.1C64.2,110.1,64.9,110.5,65.6,110.5z"/>
		</g>
	</g>
</g>
<g>
	<g transform="translate(189.740543, 338.368689)">
		<g>
			<path class="st16" d="M73.6,110.4v2.4h-9.8v-1.9l5-4.7c0.5-0.5,0.9-0.9,1.1-1.3c0.2-0.4,0.3-0.7,0.3-1.1c0-0.5-0.2-0.9-0.5-1.2
				c-0.3-0.3-0.9-0.4-1.5-0.4c-0.6,0-1.1,0.1-1.5,0.3c-0.5,0.2-0.8,0.5-1.1,1l-2.2-1.4c0.5-0.8,1.2-1.3,2.1-1.8
				c0.9-0.4,1.9-0.6,3.1-0.6c1,0,1.8,0.2,2.5,0.5c0.7,0.3,1.3,0.7,1.7,1.3c0.4,0.6,0.6,1.2,0.6,2c0,0.7-0.1,1.3-0.4,2
				c-0.3,0.6-0.9,1.3-1.7,2.1l-3,2.8H73.6z"/>
		</g>
	</g>
</g>
<g>
	<g transform="translate(200.095322, 338.368689)">
		<g>
			<path class="st16" d="M73.4,105.1c1.1,0.2,2,0.6,2.6,1.3c0.6,0.7,0.9,1.5,0.9,2.4c0,0.8-0.2,1.4-0.6,2.1c-0.4,0.6-1,1.1-1.8,1.5
				c-0.8,0.4-1.8,0.6-3,0.6c-0.9,0-1.8-0.1-2.7-0.4c-0.9-0.2-1.6-0.6-2.2-1l1.2-2.3c0.5,0.4,1,0.6,1.7,0.9c0.7,0.2,1.3,0.3,2,0.3
				c0.8,0,1.3-0.1,1.8-0.4c0.4-0.3,0.6-0.7,0.6-1.2c0-1.1-0.8-1.6-2.4-1.6h-1.4v-2l2.6-3h-5.5v-2.4h9v1.9L73.4,105.1z"/>
		</g>
	</g>
</g>
</svg>
